REM MD5 cead6534abf6712f2199fa0cd5edce70
FILE "Tomb Raider (USA) (Rev 4).bin" BINARY
  TRACK 01 MODE2/2352
    INDEX 01 00:00:00
  TRACK 02 AUDIO
    INDEX 00 34:15:36
    INDEX 01 34:17:36
  TRACK 03 AUDIO
    INDEX 00 37:32:04
    INDEX 01 37:34:04
  TRACK 04 AUDIO
    INDEX 00 38:36:02
    INDEX 01 38:38:02
  TRACK 05 AUDIO
    INDEX 00 40:39:41
    INDEX 01 40:41:41
  TRACK 06 AUDIO
    INDEX 00 42:39:52
    INDEX 01 42:41:52
  TRACK 07 AUDIO
    INDEX 00 43:56:51
    INDEX 01 43:58:51
  TRACK 08 AUDIO
    INDEX 00 44:52:42
    INDEX 01 44:54:42
  TRACK 09 AUDIO
    INDEX 00 46:00:61
    INDEX 01 46:02:61
  TRACK 10 AUDIO
    INDEX 00 46:40:67
    INDEX 01 46:42:67
  TRACK 11 AUDIO
    INDEX 00 48:00:13
    INDEX 01 48:02:13
  TRACK 12 AUDIO
    INDEX 00 48:08:50
    INDEX 01 48:10:50
  TRACK 13 AUDIO
    INDEX 00 48:23:49
    INDEX 01 48:25:49
  TRACK 14 AUDIO
    INDEX 00 48:30:52
    INDEX 01 48:32:52
  TRACK 15 AUDIO
    INDEX 00 48:42:57
    INDEX 01 48:44:57
  TRACK 16 AUDIO
    INDEX 00 48:53:60
    INDEX 01 48:55:60
  TRACK 17 AUDIO
    INDEX 00 49:32:48
    INDEX 01 49:34:48
  TRACK 18 AUDIO
    INDEX 00 50:15:37
    INDEX 01 50:17:37
  TRACK 19 AUDIO
    INDEX 00 50:40:61
    INDEX 01 50:42:61
  TRACK 20 AUDIO
    INDEX 00 52:09:31
    INDEX 01 52:11:31
  TRACK 21 AUDIO
    INDEX 00 53:03:48
    INDEX 01 53:05:48
  TRACK 22 AUDIO
    INDEX 00 53:44:65
    INDEX 01 53:46:65
  TRACK 23 AUDIO
    INDEX 00 54:48:28
    INDEX 01 54:50:28
  TRACK 24 AUDIO
    INDEX 00 55:45:72
    INDEX 01 55:47:72
  TRACK 25 AUDIO
    INDEX 00 56:01:25
    INDEX 01 56:03:25
  TRACK 26 AUDIO
    INDEX 00 56:38:13
    INDEX 01 56:40:13
  TRACK 27 AUDIO
    INDEX 00 56:45:14
    INDEX 01 56:47:14
  TRACK 28 AUDIO
    INDEX 00 56:52:15
    INDEX 01 56:54:15
  TRACK 29 AUDIO
    INDEX 00 56:59:15
    INDEX 01 57:01:15
  TRACK 30 AUDIO
    INDEX 00 57:06:16
    INDEX 01 57:08:16
  TRACK 31 AUDIO
    INDEX 00 57:14:14
    INDEX 01 57:16:14
  TRACK 32 AUDIO
    INDEX 00 57:21:15
    INDEX 01 57:23:15
  TRACK 33 AUDIO
    INDEX 00 57:30:53
    INDEX 01 57:32:53
  TRACK 34 AUDIO
    INDEX 00 57:40:20
    INDEX 01 57:42:20
  TRACK 35 AUDIO
    INDEX 00 57:47:67
    INDEX 01 57:49:67
  TRACK 36 AUDIO
    INDEX 00 57:55:06
    INDEX 01 57:57:06
  TRACK 37 AUDIO
    INDEX 00 58:12:02
    INDEX 01 58:14:02
  TRACK 38 AUDIO
    INDEX 00 58:19:03
    INDEX 01 58:21:03
  TRACK 39 AUDIO
    INDEX 00 58:26:04
    INDEX 01 58:28:04
  TRACK 40 AUDIO
    INDEX 00 58:42:10
    INDEX 01 58:44:10
  TRACK 41 AUDIO
    INDEX 00 58:52:50
    INDEX 01 58:54:50
  TRACK 42 AUDIO
    INDEX 00 58:59:51
    INDEX 01 59:01:51
  TRACK 43 AUDIO
    INDEX 00 59:06:51
    INDEX 01 59:08:51
  TRACK 44 AUDIO
    INDEX 00 59:15:64
    INDEX 01 59:17:64
  TRACK 45 AUDIO
    INDEX 00 59:24:13
    INDEX 01 59:26:13
  TRACK 46 AUDIO
    INDEX 00 59:34:04
    INDEX 01 59:36:04
  TRACK 47 AUDIO
    INDEX 00 59:41:05
    INDEX 01 59:43:05
  TRACK 48 AUDIO
    INDEX 00 59:48:06
    INDEX 01 59:50:06
  TRACK 49 AUDIO
    INDEX 00 59:55:07
    INDEX 01 59:57:07
  TRACK 50 AUDIO
    INDEX 00 60:11:03
    INDEX 01 60:13:03
  TRACK 51 AUDIO
    INDEX 00 60:18:03
    INDEX 01 60:20:03
  TRACK 52 AUDIO
    INDEX 00 60:25:03
    INDEX 01 60:27:03
  TRACK 53 AUDIO
    INDEX 00 60:32:04
    INDEX 01 60:34:04
  TRACK 54 AUDIO
    INDEX 00 60:41:24
    INDEX 01 60:43:24
  TRACK 55 AUDIO
    INDEX 00 60:48:25
    INDEX 01 60:50:25
  TRACK 56 AUDIO
    INDEX 00 60:58:04
    INDEX 01 61:00:04
  TRACK 57 AUDIO
    INDEX 00 61:05:05
    INDEX 01 61:07:05
REM LEADOUT 64:24:05
